<svg width="1000" height="1000" viewBox="0 0 1000 1000" fill="none" xmlns="http://www.w3.org/2000/svg">
<path d="M353.393 177.627L354.002 177.341L355.757 181.077L345.005 186.129L344.719 185.521L345.842 184.807C346.06 184.67 346.171 184.547 346.173 184.44C346.169 184.318 346.051 184.011 345.82 183.519L340.594 172.397C340.363 171.905 340.205 171.625 340.121 171.559C340.03 171.478 339.862 171.477 339.616 171.557L338.35 171.966L338.065 171.358L348.6 166.408L350.355 170.144L349.747 170.43L347.919 168.346C347.794 168.192 347.685 168.093 347.593 168.048C347.509 167.981 347.391 167.975 347.239 168.028C347.081 168.068 346.828 168.169 346.481 168.332L342.701 170.108L345.6 176.277L348.076 175.113C348.423 174.95 348.666 174.827 348.804 174.745C348.935 174.648 349.006 174.553 349.015 174.46C349.032 174.346 349.022 174.192 348.983 173.997L348.635 172.013L349.243 171.728L351.784 177.136L351.176 177.422L349.871 175.887C349.746 175.734 349.638 175.635 349.546 175.589C349.462 175.523 349.344 175.516 349.192 175.57C349.034 175.609 348.781 175.71 348.433 175.874L345.957 177.037L348.927 183.358L352.924 181.48C353.271 181.317 353.514 181.194 353.652 181.111C353.783 181.014 353.853 180.92 353.863 180.827C353.88 180.713 353.869 180.558 353.831 180.364L353.393 177.627ZM369.987 175.302C368.621 175.852 367.347 176.028 366.164 175.832C364.975 175.62 363.921 175.079 363.001 174.207C362.081 173.335 361.335 172.187 360.761 170.762L360.197 169.359C359.623 167.934 359.34 166.608 359.346 165.381C359.362 164.133 359.691 163.044 360.334 162.112C360.97 161.166 361.949 160.428 363.27 159.896C364.399 159.442 365.431 159.285 366.367 159.426C367.297 159.552 368.087 159.907 368.736 160.491C369.393 161.054 369.863 161.771 370.144 162.641L367.799 164.335C367.35 162.79 366.737 161.718 365.96 161.116C365.193 160.494 364.363 160.362 363.473 160.72C362.523 161.102 361.949 161.799 361.752 162.809C361.57 163.814 361.852 165.244 362.599 167.099L364.059 170.729C364.8 172.569 365.624 173.781 366.531 174.365C367.438 174.948 368.486 175.001 369.673 174.523C370.163 174.326 370.58 174.055 370.924 173.71C371.283 173.358 371.517 172.911 371.625 172.367C371.743 171.802 371.678 171.104 371.43 170.272L373.203 170.05C373.329 170.965 373.264 171.768 373.007 172.457C372.75 173.147 372.355 173.729 371.821 174.202C371.296 174.655 370.685 175.022 369.987 175.302ZM391.359 157.879L391.839 159.312C392.622 161.649 392.702 163.622 392.077 165.232C391.463 166.822 390.139 167.957 388.106 168.639C386.073 169.32 384.325 169.214 382.861 168.321C381.407 167.408 380.289 165.783 379.506 163.447L379.025 162.014C378.242 159.677 378.158 157.714 378.772 156.125C379.402 154.53 380.733 153.391 382.766 152.71C384.799 152.028 386.539 152.137 387.988 153.035C389.452 153.928 390.575 155.543 391.359 157.879ZM388.064 157.717C387.617 156.383 387.152 155.374 386.67 154.692C386.183 153.994 385.641 153.56 385.044 153.389C384.462 153.213 383.791 153.252 383.033 153.506C382.29 153.756 381.731 154.128 381.358 154.625C380.984 155.121 380.813 155.795 380.845 156.645C380.872 157.479 381.109 158.564 381.556 159.899L382.8 163.608C383.242 164.928 383.707 165.937 384.194 166.634C384.681 167.332 385.226 167.773 385.828 167.96C386.425 168.131 387.096 168.091 387.839 167.842C388.598 167.588 389.156 167.215 389.514 166.724C389.883 166.212 390.051 165.531 390.019 164.681C389.988 163.831 389.75 162.746 389.308 161.427L388.064 157.717ZM411.077 157.185L411.726 157.007L412.815 160.989L401.82 163.998L401.642 163.35L402.871 162.84C403.11 162.741 403.239 162.639 403.26 162.534C403.277 162.413 403.214 162.091 403.07 161.566L399.826 149.714C399.682 149.189 399.575 148.887 399.503 148.807C399.427 148.712 399.262 148.682 399.006 148.719L397.689 148.905L397.511 148.257L403.854 146.521L404.032 147.169L402.803 147.68C402.564 147.778 402.437 147.888 402.42 148.009C402.399 148.114 402.46 148.429 402.604 148.954L406.158 161.94L409.955 160.901C410.325 160.8 410.585 160.72 410.735 160.662C410.881 160.589 410.967 160.508 410.992 160.418C411.028 160.308 411.044 160.155 411.04 159.957L411.077 157.185ZM430.764 147.815L431.078 149.294C431.591 151.704 431.445 153.673 430.641 155.202C429.849 156.711 428.405 157.689 426.308 158.134C424.21 158.58 422.486 158.276 421.133 157.222C419.793 156.149 418.867 154.407 418.354 151.997L418.04 150.518C417.528 148.108 417.668 146.148 418.459 144.639C419.267 143.126 420.719 142.147 422.816 141.701C424.913 141.256 426.63 141.561 427.967 142.619C429.32 143.673 430.252 145.405 430.764 147.815ZM427.51 147.279C427.217 145.902 426.87 144.847 426.469 144.115C426.065 143.366 425.576 142.873 425.002 142.635C424.444 142.394 423.773 142.357 422.991 142.523C422.224 142.686 421.626 142.993 421.199 143.443C420.771 143.894 420.525 144.543 420.46 145.392C420.391 146.224 420.503 147.329 420.796 148.706L421.609 152.533C421.898 153.894 422.245 154.949 422.649 155.697C423.054 156.446 423.544 156.947 424.122 157.2C424.696 157.438 425.366 157.476 426.133 157.313C426.916 157.146 427.513 156.84 427.925 156.392C428.349 155.926 428.594 155.269 428.659 154.42C428.724 153.572 428.612 152.468 428.323 151.106L427.51 147.279ZM447.012 147.305L446.912 146.641L453.653 145.631L453.753 146.296L452.472 146.658C452.224 146.727 452.084 146.821 452.053 146.939C452.02 147.041 452.044 147.361 452.124 147.899L452.921 153.216L452.28 153.311C451.786 152.932 451.256 152.632 450.689 152.409C450.318 152.853 449.86 153.253 449.315 153.61C448.768 153.951 448.075 154.184 447.236 154.31C445.938 154.504 444.774 154.347 443.743 153.838C442.726 153.311 441.886 152.506 441.222 151.425C440.556 150.327 440.112 149.035 439.889 147.547L439.665 146.052C439.45 144.612 439.504 143.301 439.829 142.12C440.151 140.923 440.739 139.937 441.594 139.162C442.446 138.371 443.561 137.873 444.937 137.666C446.235 137.472 447.339 137.55 448.248 137.899C449.171 138.23 449.889 138.753 450.401 139.469C450.91 140.169 451.185 140.978 451.225 141.894L448.551 142.998C448.488 141.39 448.133 140.205 447.485 139.445C446.835 138.668 445.995 138.357 444.967 138.511C442.799 138.836 442.003 140.921 442.579 144.766L443.087 148.16C443.666 152.021 445.102 153.78 447.396 153.436C447.903 153.36 448.394 153.182 448.869 152.9C449.361 152.616 449.751 152.25 450.04 151.803L449.513 148.29C449.433 147.752 449.36 147.431 449.296 147.327C449.232 147.224 449.073 147.183 448.817 147.205L447.012 147.305ZM459.961 136.541L459.894 135.872L466.437 135.213L466.504 135.882L465.208 136.181C464.956 136.239 464.812 136.326 464.775 136.442C464.737 136.542 464.745 136.863 464.8 137.404L466.031 149.631C466.085 150.172 466.142 150.496 466.201 150.602C466.258 150.693 466.416 150.742 466.674 150.748L468.004 150.783L468.071 151.451L461.528 152.11L461.461 151.441L462.758 151.142C463.009 151.085 463.154 151.006 463.192 150.905C463.229 150.789 463.22 150.46 463.165 149.919L461.934 137.693C461.88 137.152 461.824 136.836 461.767 136.745C461.708 136.638 461.549 136.582 461.291 136.576L459.961 136.541ZM482.905 150.725C481.435 150.801 480.173 150.554 479.118 149.984C478.062 149.397 477.241 148.543 476.654 147.42C476.068 146.296 475.735 144.968 475.655 143.434L475.577 141.924C475.498 140.39 475.661 139.044 476.066 137.885C476.485 136.71 477.151 135.786 478.061 135.115C478.971 134.427 480.137 134.046 481.559 133.972C482.773 133.91 483.8 134.097 484.64 134.534C485.479 134.955 486.11 135.548 486.534 136.311C486.973 137.057 487.184 137.887 487.168 138.801L484.399 139.641C484.477 138.035 484.246 136.822 483.706 136C483.182 135.162 482.441 134.768 481.482 134.818C480.46 134.87 479.691 135.343 479.176 136.234C478.678 137.125 478.48 138.57 478.583 140.567L478.785 144.474C478.888 146.455 479.273 147.869 479.942 148.716C480.61 149.562 481.584 149.952 482.862 149.886C483.389 149.859 483.872 149.738 484.309 149.523C484.763 149.308 485.129 148.96 485.409 148.481C485.704 147.985 485.869 147.304 485.904 146.437L487.653 146.803C487.476 147.709 487.153 148.447 486.686 149.016C486.219 149.585 485.656 150.006 484.997 150.281C484.354 150.538 483.656 150.686 482.905 150.725ZM498.613 149.404L498.61 150.076L493.978 150.052L493.981 149.38L495.302 149.219C495.478 149.188 495.606 149.157 495.686 149.125C495.767 149.077 495.839 148.974 495.904 148.814C495.969 148.654 496.058 148.399 496.172 148.047L500.828 133.767L502.892 133.777L507.428 148.104C507.538 148.457 507.625 148.713 507.688 148.874C507.751 149.034 507.823 149.138 507.902 149.187C507.998 149.219 508.126 149.252 508.286 149.285L509.605 149.459L509.602 150.131L502.978 150.098L502.981 149.426L504.302 149.265C504.558 149.234 504.694 149.171 504.711 149.075C504.743 148.963 504.673 148.634 504.5 148.09L503.603 145.109L498.059 145.081L497.108 148.052C496.945 148.595 496.872 148.923 496.887 149.035C496.902 149.131 497.038 149.196 497.294 149.229L498.613 149.404ZM498.351 144.242L503.343 144.268L500.912 136.287L498.351 144.242ZM526.792 146.897L527.463 146.937L527.223 151.058L515.842 150.394L515.881 149.724L517.209 149.633C517.466 149.616 517.622 149.561 517.675 149.467C517.73 149.358 517.773 149.032 517.804 148.489L518.519 136.222C518.551 135.679 518.545 135.358 518.503 135.26C518.462 135.145 518.314 135.064 518.06 135.017L516.752 134.773L516.792 134.102L523.356 134.485L523.317 135.155L521.99 135.246C521.732 135.263 521.576 135.326 521.522 135.435C521.468 135.529 521.426 135.847 521.394 136.39L520.611 149.831L524.54 150.06C524.924 150.082 525.196 150.09 525.356 150.083C525.518 150.061 525.625 150.011 525.678 149.934C525.747 149.842 525.811 149.701 525.87 149.512L526.792 146.897ZM546.598 153.404C545.138 153.216 543.94 152.748 543.003 151.998C542.069 151.233 541.414 150.246 541.037 149.036C540.66 147.826 540.57 146.459 540.765 144.936L540.958 143.436C541.154 141.912 541.554 140.617 542.159 139.549C542.782 138.468 543.602 137.678 544.618 137.179C545.635 136.665 546.851 136.498 548.263 136.68C549.469 136.835 550.446 137.202 551.194 137.783C551.944 138.347 552.46 139.042 552.741 139.869C553.04 140.681 553.099 141.536 552.92 142.432L550.046 142.765C550.409 141.198 550.398 139.963 550.014 139.058C549.648 138.14 548.989 137.62 548.037 137.498C547.021 137.367 546.181 137.695 545.515 138.48C544.865 139.268 544.413 140.654 544.158 142.637L543.659 146.517C543.407 148.485 543.533 149.945 544.04 150.898C544.547 151.85 545.435 152.408 546.705 152.571C547.228 152.638 547.725 152.605 548.193 152.472C548.678 152.341 549.101 152.064 549.461 151.643C549.84 151.207 550.124 150.566 550.314 149.72L551.969 150.392C551.633 151.252 551.184 151.921 550.623 152.397C550.062 152.873 549.432 153.188 548.735 153.34C548.056 153.479 547.343 153.5 546.598 153.404ZM570.539 152.957L571.199 153.08L570.442 157.138L558.764 154.959L558.887 154.299L560.216 154.376C560.473 154.391 560.634 154.356 560.699 154.271C560.767 154.169 560.851 153.851 560.95 153.317L563.204 141.237C563.303 140.702 563.339 140.383 563.309 140.28C563.282 140.161 563.146 140.062 562.9 139.984L561.633 139.577L561.757 138.916L573.199 141.051L572.442 145.109L571.782 144.986L571.515 142.226C571.503 142.028 571.473 141.884 571.425 141.794C571.395 141.691 571.303 141.617 571.149 141.572C570.998 141.511 570.733 141.445 570.356 141.375L566.25 140.609L565.001 147.309L567.69 147.811C568.068 147.882 568.337 147.924 568.497 147.937C568.66 147.935 568.772 147.899 568.834 147.829C568.915 147.747 568.996 147.615 569.079 147.435L569.954 145.621L570.615 145.744L569.519 151.619L568.858 151.496L568.696 149.488C568.684 149.29 568.654 149.146 568.605 149.056C568.576 148.953 568.484 148.879 568.329 148.834C568.178 148.773 567.914 148.707 567.536 148.637L564.847 148.135L563.566 155.001L567.907 155.811C568.284 155.881 568.553 155.923 568.713 155.937C568.877 155.934 568.989 155.898 569.051 155.829C569.132 155.746 569.213 155.615 569.295 155.435L570.539 152.957ZM581.839 143.581L581.995 142.927L588.392 144.451L588.236 145.105L586.913 144.963C586.657 144.934 586.492 144.969 586.419 145.067C586.351 145.149 586.253 145.455 586.127 145.984L583.279 157.938C583.153 158.467 583.1 158.791 583.121 158.911C583.145 159.016 583.278 159.113 583.52 159.204L584.765 159.673L584.609 160.327L578.212 158.803L578.368 158.149L579.691 158.292C579.947 158.32 580.11 158.293 580.179 158.21C580.252 158.113 580.351 157.799 580.477 157.27L583.325 145.317C583.451 144.787 583.502 144.471 583.478 144.366C583.457 144.246 583.326 144.141 583.084 144.05L581.839 143.581ZM603.255 161.195L603.901 161.38L602.764 165.348L591.805 162.208L591.991 161.562L593.306 161.764C593.561 161.804 593.724 161.784 593.797 161.705C593.874 161.611 593.987 161.302 594.137 160.779L597.522 148.967C597.672 148.444 597.737 148.129 597.717 148.024C597.702 147.903 597.575 147.792 597.338 147.691L596.115 147.166L596.301 146.52L602.622 148.331L602.437 148.977L601.122 148.775C600.867 148.735 600.701 148.762 600.624 148.857C600.551 148.936 600.44 149.237 600.29 149.76L596.582 162.703L600.366 163.787C600.735 163.893 600.998 163.96 601.157 163.989C601.319 164.002 601.435 163.977 601.503 163.913C601.591 163.839 601.684 163.716 601.783 163.544L603.255 161.195ZM614.2 152.584L614.415 151.948L620.644 154.057L620.428 154.693L619.124 154.429C618.872 154.377 618.705 154.397 618.623 154.487C618.547 154.563 618.422 154.858 618.247 155.374L614.306 167.013C614.132 167.528 614.049 167.846 614.059 167.968C614.074 168.074 614.197 168.183 614.429 168.296L615.626 168.878L615.41 169.515L609.181 167.406L609.397 166.769L610.701 167.034C610.954 167.085 611.118 167.073 611.195 166.998C611.276 166.907 611.404 166.604 611.578 166.089L615.519 154.45C615.694 153.935 615.774 153.624 615.759 153.518C615.749 153.396 615.628 153.279 615.396 153.167L614.2 152.584ZM637.592 161.23L637.84 160.605L642.167 162.322L641.92 162.947L640.631 162.616C640.381 162.552 640.213 162.563 640.127 162.649C640.047 162.72 639.907 163.009 639.706 163.515L634.431 176.81L633.204 176.323L630.266 159.846L625.76 171.201C625.56 171.707 625.461 172.02 625.464 172.142C625.473 172.249 625.591 172.365 625.817 172.489L626.982 173.132L626.734 173.757L622.407 172.039L622.654 171.415L623.943 171.745C624.193 171.81 624.358 171.807 624.438 171.735C624.524 171.649 624.667 171.353 624.868 170.847L629.4 159.425C629.6 158.92 629.696 158.613 629.687 158.506C629.684 158.385 629.569 158.262 629.343 158.137L628.178 157.494L628.426 156.87L632.91 158.649L635.317 171.972L638.814 163.161C639.014 162.655 639.11 162.349 639.101 162.242C639.098 162.12 638.983 161.997 638.757 161.873L637.592 161.23ZM652.38 177.5L652.667 176.892L658.833 179.797L658.546 180.404L657.28 179.994C657.035 179.914 656.867 179.914 656.776 179.995C656.692 180.061 656.533 180.341 656.302 180.833L654.01 185.696L653.424 185.42C653.224 184.83 652.95 184.286 652.602 183.786C652.048 183.949 651.445 184.027 650.793 184.021C650.149 184.001 649.443 183.809 648.676 183.448C647.489 182.889 646.608 182.111 646.034 181.116C645.481 180.112 645.229 178.977 645.278 177.709C645.334 176.426 645.682 175.105 646.323 173.744L646.968 172.376C647.588 171.059 648.361 170 649.287 169.198C650.22 168.381 651.257 167.888 652.399 167.719C653.547 167.534 654.75 167.739 656.009 168.332C657.196 168.891 658.071 169.569 658.634 170.364C659.217 171.152 659.523 171.986 659.551 172.866C659.585 173.731 659.365 174.556 658.889 175.34L656.053 174.773C656.894 173.4 657.256 172.218 657.14 171.226C657.031 170.219 656.505 169.494 655.565 169.051C653.582 168.117 651.762 169.408 650.105 172.925L648.642 176.03C646.978 179.562 647.196 181.822 649.294 182.811C649.757 183.029 650.265 183.153 650.817 183.183C651.383 183.22 651.911 183.133 652.4 182.921L653.913 179.708C654.145 179.215 654.263 178.908 654.268 178.787C654.272 178.665 654.162 178.542 653.937 178.419L652.38 177.5Z" fill="white"/>
</svg>
