<svg width="1000" height="1000" viewBox="0 0 1000 1000" fill="none" xmlns="http://www.w3.org/2000/svg">
<path d="M280.149 226.67C281.303 225.744 282.039 224.71 282.356 223.569C282.677 222.393 282.367 221.219 281.425 220.046C280.73 219.18 279.891 218.668 278.908 218.508C277.945 218.332 276.655 218.578 275.038 219.243L271.707 220.59C270.036 221.268 268.441 221.41 266.923 221.016C265.408 220.587 264.056 219.633 262.867 218.152C262.079 217.171 261.566 216.08 261.329 214.878C261.111 213.661 261.255 212.423 261.761 211.162C262.286 209.886 263.26 208.676 264.684 207.533C266.241 206.282 267.733 205.559 269.158 205.363C270.567 205.149 271.827 205.339 272.938 205.934C274.048 206.529 274.925 207.423 275.566 208.616L272.736 211.886C271.607 209.85 270.368 208.583 269.018 208.085C267.688 207.572 266.389 207.825 265.119 208.844C264.139 209.632 263.582 210.554 263.449 211.609C263.336 212.65 263.711 213.708 264.576 214.785C265.287 215.67 266.162 216.248 267.203 216.52C268.263 216.776 269.526 216.615 270.993 216.038L274.324 214.691C276.126 213.941 277.739 213.704 279.165 213.983C280.576 214.242 281.891 215.131 283.111 216.651C283.976 217.728 284.506 218.9 284.701 220.167C284.9 221.399 284.7 222.667 284.102 223.97C283.507 225.238 282.47 226.467 280.989 227.657C279.912 228.522 278.769 229.187 277.56 229.651C276.336 230.097 275.104 230.217 273.863 230.011C272.641 229.79 271.442 229.124 270.265 228.013L271.641 225.768C272.726 226.922 273.768 227.667 274.766 228.004C275.768 228.306 276.714 228.322 277.603 228.051C278.512 227.764 279.361 227.304 280.149 226.67ZM306.709 191.897L308.004 193.835C310.113 196.994 311.029 199.898 310.75 202.546C310.479 205.159 308.968 207.384 306.22 209.219C303.471 211.055 300.827 211.604 298.288 210.867C295.756 210.096 293.436 208.131 291.326 204.972L290.032 203.033C287.922 199.874 287.003 196.988 287.275 194.374C287.567 191.747 289.088 189.516 291.837 187.68C294.585 185.844 297.219 185.302 299.737 186.053C302.276 186.79 304.6 188.738 306.709 191.897ZM301.743 192.988C300.538 191.183 299.439 189.87 298.446 189.05C297.44 188.209 296.458 187.783 295.5 187.77C294.563 187.743 293.581 188.072 292.556 188.757C291.551 189.428 290.87 190.209 290.515 191.098C290.16 191.988 290.178 193.058 290.569 194.31C290.946 195.541 291.738 197.059 292.943 198.865L296.292 203.88C297.484 205.665 298.583 206.978 299.589 207.818C300.596 208.659 301.585 209.096 302.556 209.13C303.514 209.143 304.495 208.813 305.5 208.142C306.526 207.457 307.206 206.677 307.541 205.801C307.882 204.891 307.857 203.81 307.467 202.558C307.076 201.307 306.284 199.788 305.093 198.004L301.743 192.988ZM335.085 191.836C333.092 192.921 331.172 193.417 329.325 193.327C327.467 193.214 325.756 192.572 324.192 191.401C322.629 190.23 321.281 188.604 320.15 186.524L319.036 184.476C317.905 182.396 317.235 180.416 317.026 178.535C316.828 176.622 317.138 174.895 317.957 173.354C318.764 171.792 320.132 170.486 322.06 169.438C323.707 168.542 325.26 168.118 326.718 168.167C328.165 168.195 329.438 168.598 330.535 169.377C331.643 170.122 332.489 171.136 333.074 172.418L329.784 175.429C328.822 173.145 327.693 171.611 326.396 170.828C325.11 170.011 323.817 169.956 322.516 170.664C321.13 171.418 320.375 172.586 320.253 174.169C320.153 175.74 320.839 177.879 322.313 180.588L325.194 185.886C326.656 188.573 328.133 190.283 329.626 191.015C331.12 191.747 332.733 191.642 334.466 190.699C335.182 190.31 335.772 189.82 336.237 189.23C336.724 188.628 337.002 187.901 337.072 187.049C337.152 186.163 336.928 185.106 336.4 183.877L339.076 183.222C339.433 184.6 339.476 185.84 339.205 186.942C338.933 188.044 338.431 189.006 337.698 189.826C336.975 190.612 336.104 191.282 335.085 191.836ZM341.81 160.921L341.383 159.977L350.622 155.802L351.048 156.746L349.301 157.82C348.961 158.028 348.793 158.225 348.797 158.413C348.791 158.578 348.96 159.043 349.305 159.807L357.106 177.071C357.452 177.835 357.694 178.281 357.832 178.407C357.961 178.512 358.215 178.505 358.595 178.388L360.556 177.786L360.982 178.73L351.744 182.905L351.317 181.96L353.065 180.886C353.404 180.679 353.577 180.493 353.584 180.327C353.58 180.139 353.406 179.663 353.06 178.899L345.259 161.636C344.914 160.872 344.677 160.437 344.549 160.333C344.41 160.206 344.151 160.201 343.771 160.319L341.81 160.921ZM376.247 171.586L376.598 172.56L369.881 174.984L369.529 174.009L371.356 173.075C371.594 172.937 371.763 172.823 371.862 172.735C371.953 172.624 372.003 172.435 372.012 172.17C372.021 171.904 372.015 171.487 371.993 170.918L371.157 147.776L374.15 146.696L388.316 165.029C388.663 165.48 388.925 165.806 389.101 166.004C389.278 166.203 389.436 166.316 389.578 166.344C389.734 166.34 389.936 166.319 390.185 166.282L392.187 165.835L392.538 166.809L382.932 170.275L382.581 169.301L384.407 168.366C384.762 168.186 384.925 168.022 384.898 167.874C384.886 167.695 384.61 167.257 384.07 166.56L381.191 162.722L373.151 165.623L373.351 170.428C373.403 171.301 373.47 171.814 373.552 171.968C373.626 172.099 373.856 172.12 374.244 172.033L376.247 171.586ZM373.129 164.254L380.368 161.642L372.615 151.38L373.129 164.254ZM416.101 153.632L417.103 153.365L418.74 159.515L401.756 164.036L401.489 163.035L403.389 162.261C403.758 162.112 403.959 161.956 403.992 161.794C404.02 161.608 403.925 161.11 403.71 160.299L398.837 141.993C398.621 141.182 398.458 140.715 398.349 140.591C398.233 140.443 397.978 140.396 397.584 140.45L395.551 140.723L395.284 139.722L405.081 137.115L405.348 138.116L403.448 138.889C403.079 139.039 402.881 139.206 402.854 139.392C402.821 139.554 402.912 140.04 403.127 140.851L408.466 160.909L414.33 159.349C414.902 159.196 415.304 159.077 415.536 158.989C415.762 158.878 415.895 158.753 415.935 158.615C415.992 158.447 416.018 158.21 416.014 157.905L416.101 153.632ZM456.73 135.564L457.757 135.429L458.957 144.563L457.93 144.698L456.732 141.833C456.62 141.549 456.507 141.352 456.393 141.243C456.301 141.106 456.131 141.041 455.883 141.049C455.632 141.032 455.213 141.062 454.626 141.139L450.847 141.636L451.985 150.293C452.094 151.125 452.196 151.621 452.292 151.783C452.385 151.92 452.63 151.987 453.028 151.985L455.813 151.88L455.948 152.907L445.162 154.324L445.028 153.297L447.011 152.775C447.396 152.675 447.616 152.546 447.67 152.39C447.721 152.209 447.692 151.703 447.582 150.872L445.115 132.089C445.006 131.257 444.905 130.773 444.812 130.636C444.717 130.474 444.47 130.395 444.072 130.397L442.021 130.406L441.886 129.378L459.274 127.094L460.103 133.404L459.076 133.539L457.367 129.621C457.255 129.337 457.142 129.141 457.028 129.031C456.936 128.894 456.766 128.829 456.518 128.837C456.267 128.82 455.848 128.85 455.261 128.928L449.281 129.713L450.679 140.352L454.457 139.855C455.044 139.778 455.458 139.711 455.7 139.655C455.938 139.574 456.086 139.467 456.143 139.335C456.221 139.176 456.278 138.944 456.313 138.641L456.73 135.564ZM494.012 136.389L494.113 138.718C494.278 142.513 493.555 145.47 491.943 147.59C490.355 149.683 487.91 150.802 484.608 150.945C481.306 151.089 478.761 150.187 476.972 148.24C475.208 146.268 474.243 143.384 474.078 139.589L473.977 137.26C473.812 133.465 474.523 130.52 476.111 128.427C477.724 126.332 480.181 125.213 483.484 125.07C486.786 124.926 489.319 125.828 491.082 127.776C492.871 129.723 493.847 132.594 494.012 136.389ZM489.2 134.747C489.106 132.578 488.847 130.886 488.424 129.67C488 128.429 487.382 127.554 486.569 127.047C485.782 126.538 484.772 126.31 483.54 126.363C482.332 126.416 481.346 126.73 480.581 127.307C479.816 127.883 479.276 128.808 478.961 130.081C478.645 131.329 478.534 133.037 478.628 135.206L478.89 141.231C478.983 143.375 479.242 145.068 479.666 146.308C480.09 147.549 480.709 148.436 481.522 148.968C482.334 149.476 483.344 149.704 484.552 149.651C485.784 149.598 486.77 149.283 487.511 148.708C488.275 148.107 488.814 147.17 489.129 145.897C489.444 144.624 489.555 142.916 489.462 140.772L489.2 134.747ZM523.563 126.836L523.616 125.801L530.784 126.164L530.732 127.198L528.687 127.354C528.29 127.384 528.05 127.483 527.968 127.651C527.886 127.795 527.824 128.286 527.782 129.124L527.101 142.612C526.951 145.568 526.21 147.766 524.878 149.205C523.572 150.621 521.637 151.264 519.075 151.134C516.094 150.984 513.733 150.05 511.993 148.331C510.252 146.613 509.459 144.227 509.613 141.172L510.267 128.239C510.309 127.401 510.297 126.907 510.23 126.755C510.165 126.579 509.937 126.456 509.545 126.387L507.526 126.026L507.578 124.991L517.703 125.503L517.651 126.537L515.605 126.693C515.209 126.723 514.969 126.822 514.886 126.99C514.805 127.134 514.743 127.625 514.701 128.463L514.034 141.655C513.895 144.414 514.299 146.435 515.247 147.718C516.195 149.001 517.605 149.689 519.477 149.784C521.3 149.876 522.746 149.369 523.814 148.262C524.884 147.131 525.486 145.247 525.619 142.611L526.304 129.049C526.346 128.212 526.334 127.717 526.268 127.565C526.203 127.389 525.974 127.267 525.583 127.197L523.563 126.836ZM559.328 130.786L559.479 129.761L566.58 130.805L566.43 131.83L564.379 131.79C563.981 131.782 563.733 131.858 563.635 132.018C563.54 132.153 563.432 132.636 563.31 133.466L560.104 155.284L558.09 154.988L547.846 131.306L545.107 149.938C544.985 150.768 544.949 151.274 544.997 151.455C545.048 151.613 545.266 151.744 545.649 151.85L547.625 152.403L547.474 153.428L540.373 152.384L540.523 151.359L542.574 151.399C542.972 151.407 543.218 151.344 543.313 151.208C543.411 151.048 543.521 150.553 543.643 149.723L546.397 130.981C546.519 130.151 546.555 129.657 546.503 129.5C546.455 129.319 546.239 129.175 545.856 129.068L543.88 128.516L544.031 127.491L551.389 128.573L559.721 147.71L561.846 133.251C561.967 132.421 562.003 131.927 561.951 131.77C561.903 131.589 561.687 131.445 561.304 131.339L559.328 130.786ZM579.353 134.395L579.601 133.389L590.2 135.998C593.265 136.753 595.392 138.229 596.578 140.426C597.789 142.629 597.928 145.623 596.996 149.407L596.439 151.671C595.508 155.455 593.992 158.054 591.891 159.468C589.82 160.863 587.252 161.183 584.186 160.429L573.587 157.82L573.835 156.814L575.873 157.049C576.268 157.095 576.519 157.056 576.626 156.929C576.739 156.78 576.896 156.297 577.097 155.483L581.624 137.088C581.825 136.274 581.907 135.786 581.87 135.624C581.84 135.439 581.639 135.275 581.267 135.133L579.353 134.395ZM589.71 137.211L586.369 136.389L580.974 158.305L584.316 159.127C585.537 159.428 586.569 159.466 587.412 159.242C588.261 158.993 588.994 158.335 589.613 157.268C590.261 156.183 590.856 154.539 591.398 152.335L592.84 146.479C593.382 144.275 593.615 142.555 593.539 141.316C593.487 140.084 593.14 139.173 592.497 138.583C591.861 137.969 590.932 137.512 589.71 137.211ZM610.876 167.018L610.534 167.996L603.793 165.64L604.134 164.662L606.141 165.089C606.413 165.132 606.616 165.151 606.749 165.145C606.889 165.115 607.047 165.001 607.222 164.8C607.396 164.6 607.654 164.272 607.996 163.817L621.942 145.33L624.946 146.38L624.378 169.541C624.362 170.11 624.36 170.527 624.372 170.793C624.384 171.058 624.436 171.246 624.528 171.357C624.651 171.452 624.821 171.564 625.038 171.692L626.873 172.607L626.532 173.585L616.891 170.217L617.233 169.239L619.239 169.666C619.628 169.749 619.859 169.725 619.931 169.594C620.034 169.447 620.096 168.933 620.117 168.052L620.303 163.257L612.234 160.438L609.359 164.293C608.849 165.003 608.578 165.444 608.544 165.615C608.518 165.763 608.684 165.925 609.04 166.102L610.876 167.018ZM613.08 159.362L620.346 161.9L620.8 149.047L613.08 159.362ZM644.729 153.832L663.282 162.194L660.666 167.996L659.722 167.57L660.33 163.34C660.395 163.017 660.407 162.779 660.368 162.626C660.361 162.461 660.251 162.316 660.036 162.192C659.821 162.068 659.444 161.885 658.904 161.642L655.497 160.106L646.967 179.029C646.623 179.794 646.449 180.27 646.445 180.458C646.452 180.623 646.625 180.809 646.964 181.017L648.713 182.089L648.287 183.033L639.045 178.867L639.471 177.923L641.432 178.523C641.812 178.64 642.067 178.646 642.195 178.542C642.333 178.415 642.575 177.969 642.92 177.205L651.45 158.281L648.043 156.746C647.525 156.512 647.138 156.351 646.881 156.262C646.646 156.183 646.464 156.196 646.336 156.301C646.217 156.383 646.048 156.55 645.826 156.801L643.059 160.059L642.114 159.633L644.729 153.832ZM673.648 168.589L674.143 167.678L683.053 172.514L682.559 173.424L680.647 172.681C680.276 172.536 680.017 172.522 679.87 172.639C679.734 172.733 679.467 173.149 679.067 173.886L670.03 190.536C669.63 191.274 669.422 191.736 669.404 191.923C669.399 192.088 669.558 192.287 669.881 192.518L671.546 193.717L671.052 194.627L662.142 189.791L662.636 188.881L664.548 189.624C664.918 189.769 665.171 189.794 665.307 189.699C665.454 189.583 665.728 189.156 666.128 188.419L675.164 171.769C675.564 171.032 675.767 170.58 675.773 170.415C675.79 170.228 675.637 170.019 675.314 169.787L673.648 168.589ZM705.971 200.255L704.703 202.211C702.635 205.398 700.331 207.387 697.789 208.178C695.281 208.962 692.64 208.455 689.867 206.656C687.094 204.858 685.544 202.647 685.217 200.023C684.924 197.393 685.811 194.484 687.878 191.297L689.146 189.342C691.214 186.155 693.501 184.169 696.009 183.385C698.538 182.614 701.189 183.128 703.962 184.927C706.735 186.726 708.274 188.93 708.581 191.54C708.908 194.163 708.038 197.068 705.971 200.255ZM703.004 196.126C704.186 194.305 704.957 192.776 705.317 191.54C705.692 190.283 705.695 189.212 705.328 188.327C704.982 187.456 704.292 186.685 703.257 186.014C702.243 185.356 701.257 185.04 700.3 185.066C699.342 185.091 698.366 185.531 697.371 186.385C696.389 187.219 695.308 188.546 694.127 190.367L690.845 195.427C689.677 197.227 688.906 198.756 688.532 200.013C688.157 201.269 688.147 202.35 688.5 203.256C688.867 204.141 689.558 204.912 690.572 205.57C691.607 206.241 692.592 206.557 693.529 206.518C694.5 206.471 695.483 206.021 696.478 205.167C697.473 204.313 698.555 202.986 699.722 201.185L703.004 196.126ZM735.711 209.742L736.355 208.931L741.979 213.391L741.335 214.203L739.579 213.141C739.24 212.935 738.987 212.876 738.822 212.965C738.672 213.035 738.336 213.399 737.815 214.056L724.111 231.333L722.517 230.068L725.513 204.44L713.81 219.195C713.288 219.852 713.003 220.271 712.954 220.452C712.92 220.614 713.042 220.837 713.321 221.121L714.754 222.589L714.11 223.4L708.486 218.94L709.13 218.128L710.886 219.19C711.225 219.396 711.47 219.465 711.62 219.395C711.786 219.305 712.129 218.932 712.65 218.275L724.423 203.433C724.944 202.776 725.221 202.367 725.255 202.205C725.305 202.023 725.19 201.791 724.911 201.507L723.478 200.039L724.122 199.228L729.948 203.849L727.573 224.587L736.656 213.136C737.177 212.479 737.454 212.07 737.488 211.908C737.538 211.726 737.423 211.494 737.144 211.21L735.711 209.742Z" fill="white"/>
</svg>
