<svg width="1035" height="1035" viewBox="0 0 1035 1035" fill="none" xmlns="http://www.w3.org/2000/svg">
<path d="M503.59 872.031L499.668 881.996L497.487 881.884L494.602 871.572C494.509 871.199 494.426 870.938 494.353 870.79C494.297 870.627 494.223 870.519 494.129 870.466C494.052 870.414 493.926 870.376 493.751 870.351L492.441 870.116L492.475 869.445L498.947 869.775L498.913 870.446L497.586 870.547C497.345 870.566 497.213 870.624 497.193 870.719C497.172 870.814 497.235 871.146 497.382 871.714L499.612 879.806L502.679 871.984C502.883 871.434 502.98 871.111 502.969 871.014C502.974 870.918 502.849 870.848 502.595 870.803L501.286 870.568L501.32 869.896L505.898 870.13L505.864 870.801L504.537 870.902C504.376 870.91 504.247 870.935 504.148 870.978C504.066 871.022 503.989 871.122 503.917 871.279C503.845 871.419 503.737 871.67 503.59 872.031ZM517.198 876.139L517.189 876.619C517.156 878.459 516.649 879.93 515.669 881.032C514.705 882.119 513.343 882.646 511.584 882.614C509.824 882.582 508.474 882.005 507.534 880.884C506.611 879.747 506.166 878.259 506.199 876.419L506.208 875.939C506.242 874.1 506.74 872.636 507.704 871.55C508.684 870.463 510.054 869.936 511.814 869.968C513.573 870 514.915 870.577 515.839 871.698C516.779 872.819 517.232 874.3 517.198 876.139ZM514.255 875.606C514.287 873.894 514.093 872.674 513.674 871.946C513.255 871.203 512.63 870.823 511.798 870.808C510.982 870.793 510.344 871.15 509.883 871.877C509.437 872.589 509.199 873.801 509.168 875.513L509.142 876.953C509.111 878.649 509.305 879.876 509.723 880.636C510.158 881.38 510.783 881.759 511.599 881.774C512.431 881.789 513.069 881.433 513.515 880.705C513.96 879.961 514.198 878.741 514.229 877.045L514.255 875.606ZM522.414 868.211C521.918 868.218 521.516 868.072 521.207 867.773C520.898 867.457 520.74 867.052 520.733 866.556C520.725 866.06 520.871 865.658 521.171 865.349C521.47 865.041 521.868 864.883 522.364 864.875C522.844 864.868 523.246 865.014 523.571 865.313C523.895 865.612 524.061 866.01 524.068 866.506C524.076 867.002 523.922 867.412 523.607 867.737C523.291 868.046 522.894 868.204 522.414 868.211ZM519.239 870.995L519.229 870.323L523.836 870.254L523.988 880.405C523.996 880.949 524.025 881.276 524.074 881.388C524.124 881.483 524.277 881.545 524.533 881.573L525.856 881.721L525.866 882.393L519.41 882.489L519.4 881.817L520.718 881.63C520.973 881.594 521.124 881.528 521.171 881.431C521.217 881.318 521.236 880.99 521.228 880.446L521.107 872.311C521.099 871.767 521.07 871.447 521.02 871.352C520.971 871.241 520.818 871.171 520.561 871.143L519.239 870.995ZM532.696 870.542C531.929 870.575 531.369 870.967 531.016 871.718C530.679 872.453 530.546 873.676 530.619 875.386L530.68 876.825C530.751 878.519 531.019 879.733 531.482 880.466C531.945 881.183 532.664 881.521 533.639 881.48C534.358 881.45 534.933 881.225 535.364 880.807C535.81 880.371 536.044 879.665 536.067 878.687L537.62 879.054C537.38 880.185 536.886 881.006 536.139 881.518C535.407 882.014 534.53 882.283 533.507 882.326C531.668 882.404 530.262 881.911 529.288 880.847C528.314 879.768 527.788 878.308 527.71 876.47L527.69 875.991C527.612 874.152 527.997 872.663 528.846 871.522C529.694 870.381 530.966 869.775 532.66 869.703C533.779 869.656 534.7 869.841 535.422 870.259C536.16 870.66 536.688 871.214 537.006 871.921C537.34 872.612 537.452 873.368 537.342 874.189L534.721 874.684C534.84 873.334 534.724 872.298 534.373 871.576C534.022 870.854 533.463 870.51 532.696 870.542ZM550.428 878.113C550.227 879.252 549.754 880.091 549.009 880.629C548.263 881.152 547.371 881.453 546.334 881.533C544.42 881.679 542.942 881.239 541.9 880.212C540.857 879.169 540.265 877.73 540.124 875.895L540.088 875.417C539.947 873.582 540.281 872.08 541.09 870.911C541.915 869.74 543.181 869.089 544.888 868.958C545.845 868.885 546.705 869.011 547.468 869.338C548.246 869.647 548.869 870.137 549.338 870.807C549.823 871.476 550.104 872.313 550.181 873.318C550.199 873.557 550.203 873.814 550.192 874.088C550.196 874.36 550.177 874.634 550.134 874.91L543.051 875.454L543.104 876.148C543.234 877.839 543.567 879.041 544.103 879.754C544.638 880.451 545.44 880.759 546.509 880.677C547.195 880.624 547.762 880.38 548.21 879.944C548.657 879.493 548.875 878.778 548.864 877.8L550.428 878.113ZM544.952 869.796C544.17 869.856 543.615 870.26 543.288 871.007C542.96 871.754 542.86 872.957 542.987 874.616L547.318 874.284C547.358 873.96 547.375 873.662 547.37 873.389C547.38 873.1 547.376 872.835 547.357 872.596C547.279 871.575 547.022 870.841 546.586 870.393C546.151 869.945 545.606 869.746 544.952 869.796Z" fill="white"/>
<path d="M476.159 852.145L476.226 851.476L480.668 851.924L480.468 853.906C481.005 853.204 481.562 852.698 482.141 852.386C482.719 852.074 483.382 851.956 484.13 852.032C485.467 852.167 486.472 852.807 487.145 853.952C487.835 855.083 488.084 856.603 487.891 858.514L487.843 858.991C487.657 860.838 487.055 862.265 486.037 863.272C485.019 864.279 483.706 864.701 482.098 864.539C481.143 864.443 480.323 864.119 479.639 863.568L479.28 867.126C479.226 867.667 479.218 867.988 479.256 868.088C479.292 868.204 479.436 868.291 479.688 868.349L481.462 868.696L481.394 869.365L474.493 868.669L474.561 868.001L475.891 867.966C476.149 867.96 476.307 867.903 476.366 867.797C476.424 867.706 476.48 867.39 476.534 866.849L477.863 853.668C477.917 853.126 477.925 852.806 477.887 852.705C477.851 852.589 477.707 852.502 477.455 852.445L476.159 852.145ZM483.403 853.02C483.005 852.98 482.567 853.104 482.087 853.394C481.625 853.669 481.089 854.282 480.479 855.234L479.752 862.445C480.296 863.111 481.006 863.488 481.881 863.576C482.773 863.666 483.449 863.34 483.909 862.599C484.388 861.843 484.696 860.781 484.834 859.412L485.026 857.501C485.175 856.021 485.102 854.92 484.804 854.198C484.507 853.477 484.04 853.084 483.403 853.02ZM501.217 859.425L501.186 859.904C501.067 861.741 500.491 863.186 499.461 864.241C498.447 865.282 497.062 865.745 495.305 865.63C493.549 865.516 492.228 864.877 491.342 863.712C490.473 862.533 490.098 861.026 490.217 859.19L490.249 858.711C490.368 856.875 490.935 855.436 491.949 854.396C492.979 853.357 494.372 852.895 496.128 853.009C497.884 853.123 499.197 853.762 500.068 854.925C500.954 856.089 501.337 857.589 501.217 859.425ZM498.303 858.755C498.414 857.046 498.278 855.819 497.893 855.072C497.51 854.31 496.903 853.901 496.073 853.847C495.259 853.794 494.604 854.12 494.109 854.826C493.632 855.516 493.337 856.715 493.226 858.424L493.132 859.861C493.022 861.553 493.158 862.789 493.54 863.567C493.939 864.331 494.546 864.739 495.36 864.792C496.19 864.846 496.845 864.52 497.324 863.814C497.804 863.091 498.099 861.884 498.209 860.191L498.303 858.755ZM502.996 848.763L503.019 848.091L507.624 848.246L507.095 863.981C507.077 864.525 507.09 864.854 507.134 864.967C507.179 865.065 507.328 865.134 507.583 865.174L508.897 865.387L508.874 866.058L502.422 865.841L502.445 865.17L503.769 865.046C504.026 865.023 504.18 864.964 504.232 864.87C504.283 864.759 504.318 864.432 504.337 863.888L504.798 850.168C504.816 849.625 504.803 849.304 504.758 849.206C504.714 849.093 504.564 849.016 504.31 848.975L502.996 848.763ZM513.189 851.884C512.693 851.878 512.294 851.722 511.994 851.414C511.694 851.091 511.547 850.681 511.552 850.185C511.558 849.689 511.715 849.291 512.023 848.99C512.33 848.69 512.732 848.543 513.228 848.549C513.708 848.554 514.106 848.711 514.422 849.019C514.739 849.326 514.894 849.728 514.888 850.224C514.882 850.72 514.718 851.126 514.394 851.443C514.07 851.743 513.669 851.89 513.189 851.884ZM509.94 854.582L509.948 853.91L514.556 853.965L514.436 864.116C514.43 864.66 514.45 864.988 514.497 865.101C514.544 865.197 514.695 865.263 514.95 865.298L516.268 865.482L516.26 866.154L509.805 866.077L509.813 865.405L511.135 865.253C511.391 865.224 511.544 865.162 511.593 865.066C511.642 864.955 511.67 864.627 511.676 864.083L511.772 855.948C511.779 855.404 511.759 855.084 511.712 854.987C511.665 854.875 511.514 854.801 511.258 854.766L509.94 854.582ZM525.705 863.568C525.507 864.546 525.114 865.254 524.527 865.692C523.955 866.114 523.253 866.33 522.421 866.338C521.573 866.347 520.875 866.17 520.327 865.808C519.78 865.429 519.374 864.93 519.112 864.308C518.85 863.687 518.715 863.024 518.707 862.32L518.642 855.985C518.636 855.441 518.609 855.121 518.56 855.026C518.511 854.914 518.358 854.844 518.102 854.814L516.78 854.66L516.773 853.988L518.621 853.969L518.592 851.185L521.347 850.605L521.381 853.94L525.221 853.901L525.229 854.741L521.39 854.78L521.472 862.772C521.483 863.796 521.618 864.506 521.878 864.904C522.138 865.285 522.468 865.474 522.868 865.47C523.284 865.465 523.602 865.302 523.823 864.98C524.06 864.657 524.206 864.072 524.261 863.223L525.705 863.568ZM529.356 851.702C528.86 851.72 528.455 851.582 528.14 851.289C527.825 850.98 527.658 850.578 527.64 850.083C527.622 849.587 527.76 849.182 528.053 848.867C528.346 848.552 528.74 848.386 529.236 848.368C529.715 848.351 530.12 848.488 530.451 848.78C530.782 849.073 530.956 849.467 530.974 849.962C530.992 850.458 530.847 850.872 530.539 851.203C530.23 851.518 529.835 851.685 529.356 851.702ZM526.24 854.552L526.216 853.88L530.821 853.714L531.187 863.86C531.206 864.403 531.242 864.73 531.294 864.841C531.345 864.935 531.5 864.993 531.757 865.016L533.082 865.136L533.106 865.808L526.654 866.04L526.63 865.369L527.943 865.153C528.198 865.112 528.347 865.043 528.392 864.945C528.436 864.831 528.448 864.503 528.428 863.959L528.135 855.828C528.116 855.285 528.08 854.966 528.029 854.872C527.977 854.761 527.822 854.695 527.565 854.672L526.24 854.552ZM539.266 853.851C538.499 853.898 537.947 854.3 537.608 855.058C537.285 855.8 537.176 857.024 537.28 858.733L537.368 860.171C537.472 861.863 537.762 863.072 538.239 863.796C538.715 864.504 539.44 864.829 540.414 864.769C541.133 864.725 541.704 864.49 542.127 864.063C542.564 863.62 542.785 862.909 542.79 861.931L544.349 862.268C544.13 863.404 543.652 864.235 542.915 864.761C542.192 865.27 541.32 865.555 540.298 865.618C538.461 865.73 537.046 865.264 536.053 864.218C535.058 863.157 534.505 861.708 534.392 859.872L534.363 859.393C534.251 857.556 534.608 856.059 535.435 854.903C536.262 853.746 537.522 853.116 539.214 853.013C540.332 852.944 541.256 853.112 541.986 853.516C542.731 853.903 543.27 854.448 543.601 855.149C543.947 855.833 544.074 856.587 543.98 857.41L541.368 857.954C541.462 856.602 541.326 855.568 540.962 854.853C540.598 854.138 540.032 853.804 539.266 853.851ZM558.193 863.173C557.963 863.438 557.673 863.668 557.323 863.864C556.988 864.059 556.567 864.182 556.057 864.234C555.405 864.3 554.841 864.212 554.366 863.97C553.907 863.727 553.58 863.35 553.383 862.84C552.916 863.466 552.378 863.946 551.768 864.281C551.173 864.599 550.549 864.791 549.897 864.857C548.798 864.968 547.948 864.748 547.346 864.198C546.741 863.632 546.393 862.887 546.299 861.964C546.204 861.025 546.47 860.234 547.097 859.592C547.722 858.934 548.902 858.517 550.637 858.341L552.81 858.121L552.614 856.187C552.48 854.866 552.214 853.984 551.816 853.542C551.431 853.082 550.937 852.883 550.332 852.944C549.934 852.985 549.578 853.125 549.265 853.366C548.95 853.591 548.748 853.981 548.66 854.537C548.586 855.075 548.687 855.837 548.963 856.822L546.298 856.706C546.097 855.986 546.108 855.302 546.332 854.652C546.57 853.984 547.019 853.424 547.681 852.971C548.341 852.503 549.213 852.213 550.295 852.104C551.521 851.98 552.488 852.083 553.197 852.413C553.906 852.744 554.421 853.222 554.741 853.849C555.078 854.475 555.284 855.161 555.36 855.909L555.918 861.425C556 862.237 556.123 862.739 556.287 862.932C556.452 863.124 556.621 863.212 556.796 863.194C557.083 863.165 557.384 862.966 557.701 862.596L558.193 863.173ZM550.819 863.485C551.233 863.443 551.629 863.299 552.006 863.051C552.397 862.787 552.786 862.337 553.172 861.703L552.894 858.957L551.103 859.138C550.323 859.217 549.777 859.457 549.464 859.859C549.15 860.261 549.033 860.851 549.112 861.631C549.177 862.268 549.354 862.749 549.644 863.073C549.934 863.398 550.326 863.535 550.819 863.485ZM556.58 846.76L556.495 846.093L561.065 845.507L563.07 861.123C563.139 861.662 563.204 861.985 563.266 862.09C563.326 862.179 563.485 862.223 563.743 862.222L565.074 862.221L565.159 862.887L558.756 863.709L558.67 863.042L559.958 862.708C560.208 862.643 560.35 862.561 560.386 862.459C560.419 862.342 560.401 862.014 560.332 861.474L558.584 847.858C558.515 847.318 558.451 847.004 558.391 846.915C558.329 846.81 558.169 846.758 557.911 846.759L556.58 846.76Z" fill="white"/>
</svg>
